<svg width="42" height="42" viewBox="0 0 42 42" fill="none" xmlns="http://www.w3.org/2000/svg">
<g clip-path="url(#clip0_34_1187)">
<path d="M30.938 17.9999H32C32.5304 17.9999 33.0391 18.2106 33.4142 18.5857C33.7893 18.9608 34 19.4695 34 19.9999V23.9999C34 24.5303 33.7893 25.039 33.4142 25.4141C33.0391 25.7892 32.5304 25.9999 32 25.9999H30.938C30.6942 27.9332 29.7533 29.7111 28.2917 30.9999C26.8302 32.2887 24.9486 32.9999 23 32.9999V30.9999C24.5913 30.9999 26.1174 30.3678 27.2426 29.2425C28.3679 28.1173 29 26.5912 29 24.9999V18.9999C29 17.4086 28.3679 15.8825 27.2426 14.7573C26.1174 13.632 24.5913 12.9999 23 12.9999C21.4087 12.9999 19.8826 13.632 18.7574 14.7573C17.6321 15.8825 17 17.4086 17 18.9999V25.9999H14C13.4696 25.9999 12.9609 25.7892 12.5858 25.4141C12.2107 25.039 12 24.5303 12 23.9999V19.9999C12 19.4695 12.2107 18.9608 12.5858 18.5857C12.9609 18.2106 13.4696 17.9999 14 17.9999H15.062C15.306 16.0668 16.2471 14.2892 17.7086 13.0006C19.1701 11.712 21.0516 11.001 23 11.001C24.9484 11.001 26.8299 11.712 28.2914 13.0006C29.7529 14.2892 30.694 16.0668 30.938 17.9999ZM14 19.9999V23.9999H15V19.9999H14ZM31 19.9999V23.9999H32V19.9999H31ZM18.76 25.7849L19.82 24.0889C20.7731 24.6859 21.8754 25.0017 23 24.9999C24.1246 25.0017 25.2269 24.6859 26.18 24.0889L27.24 25.7849C25.9693 26.581 24.4995 27.0022 23 26.9999C21.5005 27.0022 20.0307 26.581 18.76 25.7849Z" fill="#8A8595"/>
</g>
<defs>
<clipPath id="clip0_34_1187">
<rect width="24" height="24" fill="white" transform="translate(11 10)"/>
</clipPath>
</defs>
</svg>
